<?xml version="1.0" encoding="UTF-8"?>
<!DOCTYPE svg PUBLIC "-//W3C//DTD SVG 1.1//EN" "http://www.w3.org/Graphics/SVG/1.1/DTD/svg11.dtd">
<svg xmlns="http://www.w3.org/2000/svg" version="1.1" width="625px" height="149px" style="shape-rendering:geometricPrecision; text-rendering:geometricPrecision; image-rendering:optimizeQuality; fill-rule:evenodd; clip-rule:evenodd" xmlns:xlink="http://www.w3.org/1999/xlink">
<g><path style="opacity:0.883" fill="#fedfaf" d="M 28.5,14.5 C 44.8367,14.3334 61.1701,14.5001 77.5,15C 85.1682,17.673 87.6682,22.8397 85,30.5C 83.4571,32.3783 81.6238,33.8783 79.5,35C 64.8371,35.4999 50.1705,35.6666 35.5,35.5C 35.5,44.1667 35.5,52.8333 35.5,61.5C 47.1714,61.3335 58.8381,61.5001 70.5,62C 76.1088,65.2769 77.9422,70.1103 76,76.5C 74.0395,79.1353 71.5395,80.9686 68.5,82C 57.505,82.4998 46.505,82.6665 35.5,82.5C 35.9511,97.5717 35.4511,112.572 34,127.5C 27.3439,135.645 21.0105,135.312 15,126.5C 14.3333,93.1667 14.3333,59.8333 15,26.5C 17.2335,19.757 21.7335,15.757 28.5,14.5 Z"/></g>
<g><path style="opacity:0.877" fill="#fedfaf" d="M 120.5,14.5 C 127.029,14.8355 131.529,18.1689 134,24.5C 134.667,57.8333 134.667,91.1667 134,124.5C 130.314,132.8 124.48,134.633 116.5,130C 115.54,128.581 114.707,127.081 114,125.5C 113.333,90.8333 113.333,56.1667 114,21.5C 115.694,18.6424 117.861,16.309 120.5,14.5 Z"/></g>
<g><path style="opacity:0.909" fill="#fedfaf" d="M 311.5,14.5 C 316.948,13.975 321.115,15.975 324,20.5C 324.667,56.1667 324.667,91.8333 324,127.5C 319.66,133.864 314.16,135.031 307.5,131C 306.299,130.097 305.465,128.931 305,127.5C 304.815,120.253 304.315,113.087 303.5,106C 287.5,105.667 271.5,105.333 255.5,105C 248.218,101.179 246.718,95.6786 251,88.5C 270.048,65.1207 288.714,41.454 307,17.5C 308.652,16.6006 310.152,15.6006 311.5,14.5 Z M 302.5,55.5 C 304.473,64.7755 305.14,74.4422 304.5,84.5C 296.493,84.6664 288.493,84.4997 280.5,84C 288.073,74.6054 295.406,65.1054 302.5,55.5 Z"/></g>
<g><path style="opacity:0.885" fill="#fedfaf" d="M 342.5,14.5 C 353.211,14.1884 363.878,14.6884 374.5,16C 378.446,17.3061 382.112,19.1394 385.5,21.5C 399.085,14.8361 413.418,12.6695 428.5,15C 434.627,15.6413 438.794,18.8079 441,24.5C 442.631,57.4605 442.964,90.4605 442,123.5C 439.905,131.928 434.738,134.761 426.5,132C 424.622,130.457 423.122,128.624 422,126.5C 421.667,96.5 421.333,66.5 421,36.5C 413.832,35.0916 406.665,35.2582 399.5,37C 397.951,38.214 396.785,39.714 396,41.5C 395.667,69.8333 395.333,98.1667 395,126.5C 391.014,133.495 385.514,134.995 378.5,131C 376.683,129.2 375.516,127.034 375,124.5C 374.667,96.5 374.333,68.5 374,40.5C 373.065,37.8981 371.232,36.3981 368.5,36C 362.175,35.5005 355.842,35.3338 349.5,35.5C 349.667,65.1685 349.5,94.8352 349,124.5C 345.689,133.233 339.856,135.4 331.5,131C 330.299,130.097 329.465,128.931 329,127.5C 328.333,93.8333 328.333,60.1667 329,26.5C 331.233,19.757 335.733,15.757 342.5,14.5 Z"/></g>
<g><path style="opacity:0.892" fill="#fedfaf" d="M 524.5,14.5 C 531.794,13.4192 536.294,16.4192 538,23.5C 538.5,34.495 538.667,45.495 538.5,56.5C 550.505,56.3335 562.505,56.5001 574.5,57C 579.428,58.9268 582.594,62.4268 584,67.5C 584.667,85.5 584.667,103.5 584,121.5C 582.594,126.573 579.428,130.073 574.5,132C 558.833,132.667 543.167,132.667 527.5,132C 523.725,130.558 520.892,128.058 519,124.5C 517.354,90.2271 517.021,55.8938 518,21.5C 519.694,18.6424 521.861,16.309 524.5,14.5 Z M 538.5,77.5 C 546.833,77.5 555.167,77.5 563.5,77.5C 563.5,88.8333 563.5,100.167 563.5,111.5C 555.167,111.5 546.833,111.5 538.5,111.5C 538.5,100.167 538.5,88.8333 538.5,77.5 Z"/></g>
<g><path style="opacity:0.793" fill="#fedfaf" d="M 94.5,28.5 C 101.231,27.4476 105.731,30.1142 108,36.5C 108.485,45.3479 104.319,49.5145 95.5,49C 88.9507,46.7338 86.4507,42.2338 88,35.5C 89.6941,32.6424 91.8607,30.309 94.5,28.5 Z"/></g>
<g><path style="opacity:0.794" fill="#fedfaf" d="M 595.5,28.5 C 602.231,27.4476 606.731,30.1142 609,36.5C 609.485,45.3479 605.319,49.5145 596.5,49C 589.951,46.7338 587.451,42.2338 589,35.5C 590.694,32.6424 592.861,30.309 595.5,28.5 Z"/></g>
<g><path style="opacity:0.869" fill="#fedfaf" d="M 94.5,56.5 C 101.268,55.4635 105.768,58.1302 108,64.5C 108.667,84.5 108.667,104.5 108,124.5C 104.314,132.8 98.4803,134.633 90.5,130C 89.5399,128.581 88.7065,127.081 88,125.5C 87.3333,104.833 87.3333,84.1667 88,63.5C 89.0183,59.9853 91.1849,57.652 94.5,56.5 Z"/></g>
<g><path style="opacity:0.883" fill="#fedfaf" d="M 149.5,56.5 C 177.502,56.3334 205.502,56.5 233.5,57C 238,58.8333 241.167,62 243,66.5C 243.667,86.5 243.667,106.5 243,126.5C 240.081,132.025 235.581,133.858 229.5,132C 225.479,130.132 223.313,126.965 223,122.5C 222.5,107.504 222.333,92.5037 222.5,77.5C 215.833,77.5 209.167,77.5 202.5,77.5C 202.667,92.1705 202.5,106.837 202,121.5C 199.448,130.021 193.948,133.187 185.5,131C 183.951,129.786 182.785,128.286 182,126.5C 181.5,110.17 181.333,93.8367 181.5,77.5C 174.5,77.5 167.5,77.5 160.5,77.5C 160.956,94.2367 160.456,110.903 159,127.5C 153.97,133.313 148.303,133.98 142,129.5C 141.333,128.167 140.667,126.833 140,125.5C 139.333,106.167 139.333,86.8333 140,67.5C 141.599,62.406 144.766,58.7393 149.5,56.5 Z"/></g>
<g><path style="opacity:0.891" fill="#fedfaf" d="M 456.5,56.5 C 472.17,56.3334 487.837,56.5001 503.5,57C 508.428,58.9268 511.594,62.4268 513,67.5C 513.667,85.5 513.667,103.5 513,121.5C 511.594,126.573 508.428,130.073 503.5,132C 487.833,132.667 472.167,132.667 456.5,132C 451.572,130.073 448.406,126.573 447,121.5C 446.333,103.5 446.333,85.5 447,67.5C 448.599,62.406 451.766,58.7393 456.5,56.5 Z M 467.5,77.5 C 475.833,77.5 484.167,77.5 492.5,77.5C 492.5,88.8333 492.5,100.167 492.5,111.5C 484.167,111.5 475.833,111.5 467.5,111.5C 467.5,100.167 467.5,88.8333 467.5,77.5 Z"/></g>
<g><path style="opacity:0.869" fill="#fedfaf" d="M 595.5,56.5 C 602.268,55.4635 606.768,58.1302 609,64.5C 609.667,84.5 609.667,104.5 609,124.5C 605.314,132.8 599.48,134.633 591.5,130C 590.54,128.581 589.707,127.081 589,125.5C 588.333,104.833 588.333,84.1667 589,63.5C 590.018,59.9853 592.185,57.652 595.5,56.5 Z"/></g>
</svg>
